<?xml version="1.0" encoding="UTF-8"?> <svg xmlns="http://www.w3.org/2000/svg" width="64.468" height="42.954" viewBox="0 0 64.468 42.954"> <g> <g> <line x1="3.5" y1="3.5" x2="60.968" y2="3.5"></line> <path d="M60.968,7H3.5a3.5,3.5,0,0,1,0-7H60.968a3.5,3.5,0,0,1,0,7Z"></path> </g> <g> <line x1="3.5" y1="21.477" x2="60.968" y2="21.477"></line> <path d="M60.968,24.977H3.5a3.5,3.5,0,0,1,0-7H60.968a3.5,3.5,0,0,1,0,7Z"></path> </g> <g> <line x1="3.5" y1="39.454" x2="60.968" y2="39.454"></line> <path d="M60.968,42.954H3.5a3.5,3.5,0,0,1,0-7H60.968a3.5,3.5,0,0,1,0,7Z"></path> </g> </g> </svg> 