<?xml version="1.0" encoding="UTF-8"?> <svg xmlns="http://www.w3.org/2000/svg" width="47.761mm" height="47.947mm" viewBox="0 0 135.386 135.913"> <g> <path d="M11.751,50.874l-1.609,6.452,2.669,2.017-.616,2.47L.738,52.788l.589-2.36,14.358-2.607-.626,2.507ZM9.673,51.2,3.425,52.224l5.038,3.822Z" fill="#fff"></path> <path d="M14.721,38.017l-1.233,2.14,4.857,2.8-1.214,2.107L5.607,38.424l1.214-2.108L11.645,39.1l1.271-2.206L10,30.8l1.308-2.272,3.315,7.15,8.3-.66-1.4,2.42Z" fill="#fff"></path> <path d="M32.975,21.913l3.494,3.6L34.833,27.1,32.8,25l-8.1,7.861-9.263-9.543,1.745-1.694,7.808,8.043L29.8,25l-7.807-8.043,1.759-1.708,7.807,8.044Z" fill="#fff"></path> <path d="M31.247,9.822l2.169-1.1,4.267,8.424L39.789,5.5,41.84,4.457l6.01,11.864-2.17,1.1L41.422,9.013,39.307,20.648l-2.051,1.039Z" fill="#fff"></path> <path d="M60.014,0l2.4,13.083-2.393.438L59.35,9.876l-3.233.592-.262.048-1.762,4.089-2.561.469,2.065-4.55a4.288,4.288,0,0,1-2.4-1.213A4.692,4.692,0,0,1,49.979,6.8a4.86,4.86,0,0,1,.2-2.7,4.376,4.376,0,0,1,1.6-2A6.952,6.952,0,0,1,54.576,1Zm-7.15,4.148a2.572,2.572,0,0,0-.425,2.164A2.606,2.606,0,0,0,53.57,8.163a3.24,3.24,0,0,0,2.352.293L58.987,7.9,58,2.494l-2.971.544A3.443,3.443,0,0,0,52.864,4.148Z" fill="#fff"></path> <path d="M83.254,12.1l-6.493-1.438-1.945,2.722-2.485-.55L81.048,1.145l2.375.525,2.988,14.284L83.888,15.4Zm-.379-2.069L81.684,3.815,78,8.954Z" fill="#fff"></path> <path d="M96.2,14.74l-2.172-1.177-2.67,4.929-2.139-1.159L95.559,5.639,97.7,6.8l-2.653,4.894,2.239,1.213,6.009-3.075,2.306,1.249-7.06,3.5.876,8.275-2.457-1.33Z" fill="#fff"></path> <path d="M112.769,32.563l-3.507,3.586-1.63-1.594,2.046-2.092-8.069-7.891,9.3-9.509,1.739,1.7-7.838,8.014,4.8,4.69,7.838-8.015,1.752,1.714-7.837,8.015Z" fill="#fff"></path> <path d="M124.816,30.524l1.155,2.141-8.31,4.485,11.7,1.8,1.093,2.024-11.7,6.317-1.155-2.14,8.293-4.477L114.2,38.865l-1.092-2.023Z" fill="#fff"></path> <path d="M135.386,59.023l-13.014,2.738-.5-2.38,3.626-.763L124.82,55.4l-.055-.261-4.134-1.654-.536-2.548,4.6,1.945a4.283,4.283,0,0,1,1.15-2.426,4.679,4.679,0,0,1,2.477-1.288,4.857,4.857,0,0,1,2.706.13,4.386,4.386,0,0,1,2.045,1.55,6.99,6.99,0,0,1,1.173,2.763Zm-4.334-7.039a2.577,2.577,0,0,0-2.175-.368,2.605,2.605,0,0,0-1.819,1.179,3.24,3.24,0,0,0-.232,2.359l.641,3.05,5.373-1.13-.621-2.957A3.442,3.442,0,0,0,131.052,51.984Z" fill="#fff"></path> <path d="M123.891,82.576l1.267-6.529-2.772-1.873.486-2.5,11.916,8.408-.463,2.387-14.2,3.362.492-2.538Zm2.059-.434,6.185-1.353L126.9,77.237Z" fill="#fff"></path> <path d="M121.6,95.586l1.12-2.2-5-2.54,1.1-2.168,11.855,6.028-1.1,2.168-4.963-2.524-1.154,2.27,3.232,5.927-1.189,2.337-3.683-6.966-8.25,1.091,1.266-2.489Z" fill="#fff"></path> <path d="M104.215,112.608,100.54,109.2l1.55-1.672,2.145,1.991,7.678-8.272,9.748,9.048-1.655,1.782-8.216-7.626-4.563,4.916,8.217,7.626-1.667,1.8-8.217-7.625Z" fill="#fff"></path> <path d="M106.559,124.6l-2.109,1.21-4.7-8.189-1.5,11.746-1.994,1.144-6.621-11.535,2.11-1.21,4.691,8.173,1.5-11.73,1.993-1.144Z" fill="#fff"></path> <path d="M78.372,135.913,75.29,122.974l2.365-.563.859,3.6,3.2-.762.259-.061,1.544-4.177,2.532-.6-1.821,4.652a4.292,4.292,0,0,1,2.456,1.085,4.692,4.692,0,0,1,1.353,2.441,4.863,4.863,0,0,1-.058,2.709,4.369,4.369,0,0,1-1.5,2.085,6.954,6.954,0,0,1-2.731,1.247Zm6.921-4.521a3.013,3.013,0,0,0-.917-3.971,3.247,3.247,0,0,0-2.365-.17l-3.03.723,1.272,5.342,2.939-.7A3.45,3.45,0,0,0,85.293,131.392Z" fill="#fff"></path> <path d="M54.532,125.041l6.56,1.092,1.8-2.821,2.511.418-8.088,12.137-2.4-.4-3.738-14.105,2.549.425Zm.488,2.045,1.519,6.148,3.41-5.326Z" fill="#fff"></path> <path d="M41.46,123.093l2.231,1.061,2.406-5.063,2.2,1.044-5.71,12.013-2.2-1.044,2.39-5.028-2.3-1.093-5.839,3.389-2.368-1.126,6.866-3.869-1.311-8.216,2.523,1.2Z" fill="#fff"></path> <path d="M23.976,106.157l3.315-3.765L29,103.9l-1.934,2.2,8.47,7.459-8.791,9.982-1.825-1.608,7.409-8.413L27.3,109.083,19.889,117.5l-1.839-1.62,7.408-8.413Z" fill="#fff"></path> <path d="M12.055,108.823l-1.266-2.076,8.062-4.916L7.07,100.646l-1.2-1.963L17.229,91.76,18.5,93.836l-8.047,4.907,11.766,1.193,1.2,1.963Z" fill="#fff"></path> <path d="M0,80.942l12.852-3.424.626,2.35-3.58.954L10.744,84l.068.256,4.217,1.434L15.7,88.2l-4.7-1.7a4.292,4.292,0,0,1-1.02,2.484,4.689,4.689,0,0,1-2.405,1.418,4.872,4.872,0,0,1-2.709.013,4.381,4.381,0,0,1-2.124-1.439,6.949,6.949,0,0,1-1.318-2.7Zm4.7,6.8a2.578,2.578,0,0,0,2.191.252,2.6,2.6,0,0,0,1.754-1.274,3.235,3.235,0,0,0,.107-2.368l-.8-3.011L2.646,82.753l.778,2.92A3.446,3.446,0,0,0,4.7,87.741Z" fill="#fff"></path> </g> </svg> 